{"title":"My.So.Take.2010.BRRip.XviD.MP3-RARBG","uid":12939055,"size":1363206013,"categoryP":"video","categoryS":"movies","magnet":"?xt=urn:btih:e035a74b4ac7c8127427a66944b5a191c6452296&amp;dn=My.So.Take.2010.BRRip.XviD.MP3-RARBG&amp;tr=udp%3A%2F%2Ftracker.leechers-paradise.org%3A6969&amp;tr=udp%3A%2F%2Fzer0day.ch%3A1337&amp;tr=udp%3A%2F%2Fopen.demonii.com%3A1337&amp;tr=udp%3A%2F%2Ftracker.coppersurfer.tk%3A6969&amp;tr=udp%3A%2F%2Fexodus.desync.com%3A6969","seeders":0,"leechers":0,"uploader":null,"files":4,"time":1449612672,"description":"Video\r\nID                                       : 0\r\nFormat                                   : MPEG-4 Visual\r\nFormat profile                           :   \r\nFormat settings, BVOP                    : No\r\nFormat settings, QPel                    : No\r\nFormat settings, GMC                     : No warppoints\r\nFormat settings, Matrix                  : Default (H.263)\r\nCodec ID                                 : XVID\r\nCodec ID/Hint                            : XviD\r\nDuration                                 : 1h 47mn\r\nBit rate                                 : 1 485 Kbps\r\nWidth                                    : 720 pixels\r\nHeight                                   : 306 pixels\r\nDisplay aspect ratio                     : 2.35:1\r\nFrame rate                               : 23.976 fps\r\nColor space                              : YUV\r\nChroma subsampling                       : 4:2:0\r\nBit depth                                : 8 bits\r\nScan type                                : Progressive\r\nCompression mode                         : Lossy\r\nBits/(Pixel*Frame)                       : 0.281\r\nStream size                              : 1.11 GiB (88%)\r\nTitle                                    : RARBG.COM -\nWriting library                          : Lavc56.60.100\r\n\r\nAudio\r\nID                                       : 1\r\nFormat                                   : MPEG Audio\r\nFormat version                           : Version 1\r\nFormat profile                           : Layer 3\r\nMode                                     : Joint stereo\r\nCodec ID                                 : 55\r\nCodec ID/Hint                            : MP3\r\nDuration                                 : 1h 47mn\r\nBit rate mode                            : Constant\r\nBit rate                                 : 192 Kbps\r\nChannel(s)                               : 2 channels\r\nSampling rate                            : 48.0 KHz\r\nCompression mode                         : Lossy\r\nStream size                              : 147 MiB (11%)\r\nAlignment                                : Aligned on interleaves\r\nInterleave, duration                     : 24 ms (0.58 video frame)\r\nInterleave, preload duration             : 24 ms\r\nTitle                                    : RARBG.COM -\nWriting library                          : LAME3.99.5","torrent":{"xt":"urn:btih:e035a74b4ac7c8127427a66944b5a191c6452296","amp;dn":"My.So.Take.2010.BRRip.XviD.MP3-RARBG","amp;tr":["udp%3A%2F%2Ftracker.leechers-paradise.org%3A6969","udp%3A%2F%2Fzer0day.ch%3A1337","udp%3A%2F%2Fopen.demonii.com%3A1337","udp%3A%2F%2Ftracker.coppersurfer.tk%3A6969","udp%3A%2F%2Fexodus.desync.com%3A6969"],"infoHash":"e035a74b4ac7c8127427a66944b5a191c6452296","infoHashBuffer":{"type":"Buffer","data":[224,53,167,75,74,199,200,18,116,39,166,105,68,181,161,145,198,69,34,150]},"announce":[],"urlList":[]}}